<?xml version="1.0" encoding="UTF-8" standalone="no"?>
<svg
   xmlns:dc="http://purl.org/dc/elements/1.1/"
   xmlns:cc="http://creativecommons.org/ns#"
   xmlns:rdf="http://www.w3.org/1999/02/22-rdf-syntax-ns#"
   xmlns:svg="http://www.w3.org/2000/svg"
   xmlns="http://www.w3.org/2000/svg"
   xmlns:sodipodi="http://sodipodi.sourceforge.net/DTD/sodipodi-0.dtd"
   xmlns:inkscape="http://www.inkscape.org/namespaces/inkscape"
   width="260mm"
   height="210mm"
   viewBox="0 9820 260 210"
   version="1.1"
   id="svg13"
   sodipodi:docname="UniversalBox130.svg"
   inkscape:version="0.92.2 (5c3e80d, 2017-08-06)">
  <metadata
     id="metadata19">
    <rdf:RDF>
      <cc:Work
         rdf:about="">
        <dc:format>image/svg+xml</dc:format>
        <dc:type
           rdf:resource="http://purl.org/dc/dcmitype/StillImage" />
        <dc:title></dc:title>
      </cc:Work>
    </rdf:RDF>
  </metadata>
  <defs
     id="defs17" />
  <sodipodi:namedview
     pagecolor="#ffffff"
     bordercolor="#666666"
     borderopacity="1"
     objecttolerance="10"
     gridtolerance="10"
     guidetolerance="10"
     inkscape:pageopacity="0"
     inkscape:pageshadow="2"
     inkscape:window-width="1680"
     inkscape:window-height="1028"
     id="namedview15"
     showgrid="false"
     inkscape:zoom="0.49058807"
     inkscape:cx="370.5355"
     inkscape:cy="229.25133"
     inkscape:window-x="-8"
     inkscape:window-y="-8"
     inkscape:window-maximized="1"
     inkscape:current-layer="svg13" />
  <path
     inkscape:connector-curvature="0"
     id="path2"
     d="m 6.4234883,9993.1888 h 6.9999997 m 0,0 c 0.0547,0 0.10156,-0.043 0.10156,-0.1016 m 0,0 v -3 c 0,0.055 -0.043,0.1016 -0.10156,0.1016 m 0,0 h 6 c -0.0547,0 -0.10156,-0.043 -0.10156,-0.1016 m 0,0 v 3 c 0,0.055 0.043,0.1016 0.10156,0.1016 m 0,0 h 6 m 0,0 c 0.0547,0 0.10156,-0.043 0.10156,-0.1016 m 0,0 v -3 c 0,0.055 -0.043,0.1016 -0.10156,0.1016 m 0,0 h 6 c -0.0547,0 -0.10156,-0.043 -0.10156,-0.1016 m 0,0 v 3 c 0,0.055 0.043,0.1016 0.10156,0.1016 m 0,0 h 7 m 0,0 c 0.0547,0 0.10156,-0.043 0.10156,-0.1016 m 0,0 v -3 m 0,0 v -9 m 0,0 c 0,0.055 -0.043,0.1016 -0.10156,0.1016 m 0,0 h 3 c 0.0547,0 0.10156,-0.043 0.10156,-0.1016 m 0,0 v -6 c 0,-0.055 -0.043,-0.1015 -0.10156,-0.1015 m 0,0 h -3 c 0.0547,0 0.10156,0.043 0.10156,0.1015 m 0,0 v -6 m 0,0 c 0,0.055 -0.043,0.1016 -0.10156,0.1016 m 0,0 h 3 c 0.0547,0 0.10156,-0.043 0.10156,-0.1016 m 0,0 v -6 c 0,-0.055 -0.043,-0.1015 -0.10156,-0.1015 m 0,0 h -3 c 0.0547,0 0.10156,0.043 0.10156,0.1015 m 0,0 v -6 m 0,0 c 0,0.055 -0.043,0.1016 -0.10156,0.1016 m 0,0 h 3 c 0.0547,0 0.10156,-0.043 0.10156,-0.1016 m 0,0 v -6 c 0,-0.055 -0.043,-0.1015 -0.10156,-0.1015 m 0,0 h -3 c 0.0547,0 0.10156,0.043 0.10156,0.1015 m 0,0 v -6 m 0,0 c 0,0.055 -0.043,0.1016 -0.10156,0.1016 m 0,0 h 3 c 0.0547,0 0.10156,-0.043 0.10156,-0.1016 m 0,0 v -6 c 0,-0.055 -0.043,-0.1015 -0.10156,-0.1015 m 0,0 h -3 c 0.0547,0 0.10156,0.043 0.10156,0.1015 m 0,0 v -9 m 0,0 c 0,-0.055 -0.043,-0.1015 -0.10156,-0.1015 m 0,0 v 0 m 0,0 H 6.4234883 m 0,0 c -0.0547,0 -0.10156,0.043 -0.10156,0.1015 m 0,0 v 0 m 0,0 v 9 m 0,0 c 0,-0.055 0.043,-0.1015 0.10156,-0.1015 m 0,0 h -3 c -0.0547,0 -0.10156,0.043 -0.10156,0.1015 m 0,0 v 6 c 0,0.055 0.043,0.1016 0.10156,0.1016 m 0,0 h 3 c -0.0547,0 -0.10156,-0.043 -0.10156,-0.1016 m 0,0 v 6 m 0,0 c 0,-0.055 0.043,-0.1015 0.10156,-0.1015 m 0,0 h -3 c -0.0547,0 -0.10156,0.043 -0.10156,0.1015 m 0,0 v 6 c 0,0.055 0.043,0.1016 0.10156,0.1016 m 0,0 h 3 c -0.0547,0 -0.10156,-0.043 -0.10156,-0.1016 m 0,0 v 6 m 0,0 c 0,-0.055 0.043,-0.1015 0.10156,-0.1015 m 0,0 h -3 c -0.0547,0 -0.10156,0.043 -0.10156,0.1015 m 0,0 v 6 c 0,0.055 0.043,0.1016 0.10156,0.1016 m 0,0 h 3 c -0.0547,0 -0.10156,-0.043 -0.10156,-0.1016 m 0,0 v 6 m 0,0 c 0,-0.055 0.043,-0.1015 0.10156,-0.1015 m 0,0 h -3 c -0.0547,0 -0.10156,0.043 -0.10156,0.1015 m 0,0 v 6 c 0,0.055 0.043,0.1016 0.10156,0.1016 m 0,0 h 3 c -0.0547,0 -0.10156,-0.043 -0.10156,-0.1016 m 0,0 v 9 m 0,0 v 3 c 0,0.055 0.043,0.1016 0.10156,0.1016 m 0,0 v 0"
     style="fill:none;stroke:#ff0000;stroke-width:0.1;stroke-linecap:butt;stroke-linejoin:miter;stroke-miterlimit:7.33333349;stroke-dasharray:none;stroke-opacity:1" />
  <path
     inkscape:connector-curvature="0"
     id="path4"
     d="m 46.247374,9993.2835 h 8 m 0,0 c 0.05469,0 0.101562,-0.04 0.101562,-0.101 m 0,0 v -3 c 0,0.06 -0.04297,0.101 -0.101562,0.101 m 0,0 h 6 c -0.05469,0 -0.101562,-0.04 -0.101562,-0.101 m 0,0 v 3 c 0,0.06 0.04297,0.101 0.101562,0.101 m 0,0 h 6 m 0,0 c 0.05469,0 0.101562,-0.04 0.101562,-0.101 m 0,0 v -3 c 0,0.06 -0.04297,0.101 -0.101562,0.101 m 0,0 h 6 c -0.05469,0 -0.101563,-0.04 -0.101563,-0.101 m 0,0 v 3 c 0,0.06 0.04297,0.101 0.101563,0.101 m 0,0 h 6 m 0,0 c 0.05469,0 0.101562,-0.04 0.101562,-0.101 m 0,0 v -3 c 0,0.06 -0.04297,0.101 -0.101562,0.101 m 0,0 h 6 c -0.05469,0 -0.101563,-0.04 -0.101563,-0.101 m 0,0 v 3 c 0,0.06 0.04297,0.101 0.101563,0.101 m 0,0 h 6 m 0,0 c 0.05469,0 0.101562,-0.04 0.101562,-0.101 m 0,0 v -3 c 0,0.06 -0.04297,0.101 -0.101562,0.101 m 0,0 h 6 c -0.05469,0 -0.101563,-0.04 -0.101563,-0.101 m 0,0 v 3 c 0,0.06 0.04297,0.101 0.101563,0.101 m 0,0 h 5.999996 m 0,0 c 0.0547,0 0.10157,-0.04 0.10157,-0.101 m 0,0 v -3 c 0,0.06 -0.043,0.101 -0.10157,0.101 m 0,0 h 6 c -0.0547,0 -0.10156,-0.04 -0.10156,-0.101 m 0,0 v 3 c 0,0.06 0.043,0.101 0.10156,0.101 m 0,0 h 6 m 0,0 c 0.0547,0 0.10156,-0.04 0.10156,-0.101 m 0,0 v -3 c 0,0.06 -0.043,0.101 -0.10156,0.101 m 0,0 h 6 c -0.0547,0 -0.10156,-0.04 -0.10156,-0.101 m 0,0 v 3 c 0,0.06 0.043,0.101 0.10156,0.101 m 0,0 h 6 m 0,0 c 0.0547,0 0.10156,-0.04 0.10156,-0.101 m 0,0 v -3 c 0,0.06 -0.043,0.101 -0.10156,0.101 m 0,0 h 6 c -0.0547,0 -0.10156,-0.04 -0.10156,-0.101 m 0,0 v 3 c 0,0.06 0.043,0.101 0.10156,0.101 m 0,0 h 6 m 0,0 c 0.0547,0 0.10156,-0.04 0.10156,-0.101 m 0,0 v -3 c 0,0.06 -0.043,0.101 -0.10156,0.101 m 0,0 h 6 c -0.0547,0 -0.10156,-0.04 -0.10156,-0.101 m 0,0 v 3 c 0,0.06 0.043,0.101 0.10156,0.101 m 0,0 h 6 m 0,0 c 0.0547,0 0.10156,-0.04 0.10156,-0.101 m 0,0 v -3 c 0,0.06 -0.043,0.101 -0.10156,0.101 m 0,0 h 6 c -0.0547,0 -0.10156,-0.04 -0.10156,-0.101 m 0,0 v 3 c 0,0.06 0.043,0.101 0.10156,0.101 m 0,0 h 6 m 0,0 c 0.0547,0 0.10156,-0.04 0.10156,-0.101 m 0,0 v -3 c 0,0.06 -0.043,0.101 -0.10156,0.101 m 0,0 h 6 c -0.0547,0 -0.10156,-0.04 -0.10156,-0.101 m 0,0 v 3 c 0,0.06 0.043,0.101 0.10156,0.101 m 0,0 h 8 m 0,0 h 3 c 0.0547,0 0.10156,-0.04 0.10156,-0.101 m 0,0 v -3 m 0,0 v -9 m 0,0 c 0,-0.05 -0.043,-0.102 -0.10156,-0.102 m 0,0 h -3 c 0.0547,0 0.10156,0.04 0.10156,0.102 m 0,0 v -6 c 0,0.06 -0.043,0.101 -0.10156,0.101 m 0,0 h 3 c 0.0547,0 0.10156,-0.04 0.10156,-0.101 m 0,0 v -6.0004 m 0,0 c 0,-0.055 -0.043,-0.1015 -0.10156,-0.1015 m 0,0 h -3 c 0.0547,0 0.10156,0.043 0.10156,0.1015 m 0,0 v -6 c 0,0.055 -0.043,0.1016 -0.10156,0.1016 m 0,0 h 3 c 0.0547,0 0.10156,-0.043 0.10156,-0.1016 m 0,0 v -6 m 0,0 c 0,-0.055 -0.043,-0.1015 -0.10156,-0.1015 m 0,0 h -3 c 0.0547,0 0.10156,0.043 0.10156,0.1015 m 0,0 v -6 c 0,0.055 -0.043,0.1016 -0.10156,0.1016 m 0,0 h 3 c 0.0547,0 0.10156,-0.043 0.10156,-0.1016 m 0,0 v -6 m 0,0 c 0,-0.055 -0.043,-0.1015 -0.10156,-0.1015 m 0,0 h -3 c 0.0547,0 0.10156,0.043 0.10156,0.1015 m 0,0 v -6 c 0,0.055 -0.043,0.1016 -0.10156,0.1016 m 0,0 h 3 c 0.0547,0 0.10156,-0.043 0.10156,-0.1016 m 0,0 v -9 m 0,0 c 0,-0.055 -0.043,-0.1015 -0.10156,-0.1015 m 0,0 h -3 m 0,0 H 46.247374 m 0,0 h -3 c -0.05469,0 -0.101563,0.043 -0.101563,0.1015 m 0,0 v 0 m 0,0 v 9 m 0,0 c 0,0.055 0.04297,0.1016 0.101563,0.1016 m 0,0 h 3 c -0.05469,0 -0.101563,-0.043 -0.101563,-0.1016 m 0,0 v 6 c 0,-0.055 0.04297,-0.1015 0.101563,-0.1015 m 0,0 h -3 c -0.05469,0 -0.101563,0.043 -0.101563,0.1015 m 0,0 v 6 m 0,0 c 0,0.055 0.04297,0.1016 0.101563,0.1016 m 0,0 h 3 c -0.05469,0 -0.101563,-0.043 -0.101563,-0.1016 m 0,0 v 6 c 0,-0.055 0.04297,-0.1015 0.101563,-0.1015 m 0,0 h -3 c -0.05469,0 -0.101563,0.043 -0.101563,0.1015 m 0,0 v 6 m 0,0 c 0,0.055 0.04297,0.1016 0.101563,0.1016 m 0,0 h 3 c -0.05469,0 -0.101563,-0.043 -0.101563,-0.1016 m 0,0 v 6 c 0,-0.055 0.04297,-0.1015 0.101563,-0.1015 m 0,0 h -3 c -0.05469,0 -0.101563,0.043 -0.101563,0.1015 m 0,0 v 6.0004 m 0,0 c 0,0.06 0.04297,0.101 0.101563,0.101 m 0,0 h 3 c -0.05469,0 -0.101563,-0.04 -0.101563,-0.101 m 0,0 v 6 c 0,-0.05 0.04297,-0.102 0.101563,-0.102 m 0,0 h -3 c -0.05469,0 -0.101563,0.04 -0.101563,0.102 m 0,0 10e-7,9 m 0,0 v 3 c 0,0.06 0.04297,0.101 0.101562,0.101 m 0,0 h 3"
     style="fill:none;stroke:#ff0000;stroke-width:0.1;stroke-linecap:butt;stroke-linejoin:miter;stroke-miterlimit:7.33333349;stroke-dasharray:none;stroke-opacity:1" />
  <path
     inkscape:connector-curvature="0"
     id="path6"
     d="m 46.247374,9928.5845 h 8 m 0,0 c 0.05469,0 0.101562,-0.043 0.101562,-0.1016 m 0,0 v -3 c 0,0.055 -0.04297,0.1016 -0.101562,0.1016 m 0,0 h 6 c -0.05469,0 -0.101562,-0.043 -0.101562,-0.1016 m 0,0 v 3 c 0,0.055 0.04297,0.1016 0.101562,0.1016 m 0,0 h 6 m 0,0 c 0.05469,0 0.101562,-0.043 0.101562,-0.1016 m 0,0 v -3 c 0,0.055 -0.04297,0.1016 -0.101562,0.1016 m 0,0 h 6 c -0.05469,0 -0.101562,-0.043 -0.101562,-0.1016 m 0,0 v 3 c 0,0.055 0.04297,0.1016 0.101562,0.1016 m 0,0 h 6 m 0,0 c 0.05469,0 0.101562,-0.043 0.101562,-0.1016 m 0,0 v -3 c 0,0.055 -0.04297,0.1016 -0.101562,0.1016 m 0,0 h 6 c -0.05469,0 -0.101562,-0.043 -0.101562,-0.1016 m 0,0 v 3 c 0,0.055 0.04297,0.1016 0.101562,0.1016 m 0,0 h 6 m 0,0 c 0.05469,0 0.101562,-0.043 0.101562,-0.1016 m 0,0 v -3 c 0,0.055 -0.04297,0.1016 -0.101562,0.1016 m 0,0 h 6 c -0.05469,0 -0.101562,-0.043 -0.101562,-0.1016 m 0,0 v 3 c 0,0.055 0.04297,0.1016 0.101562,0.1016 m 0,0 h 5.999996 m 0,0 c 0.0547,0 0.10157,-0.043 0.10157,-0.1016 m 0,0 v -3 c 0,0.055 -0.043,0.1016 -0.10157,0.1016 m 0,0 h 6 c -0.0547,0 -0.10156,-0.043 -0.10156,-0.1016 m 0,0 v 3 c 0,0.055 0.043,0.1016 0.10156,0.1016 m 0,0 h 6 m 0,0 c 0.0547,0 0.10156,-0.043 0.10156,-0.1016 m 0,0 v -3 c 0,0.055 -0.043,0.1016 -0.10156,0.1016 m 0,0 h 6 c -0.0547,0 -0.10156,-0.043 -0.10156,-0.1016 m 0,0 v 3 c 0,0.055 0.043,0.1016 0.10156,0.1016 m 0,0 h 6 m 0,0 c 0.0547,0 0.10156,-0.043 0.10156,-0.1016 m 0,0 v -3 c 0,0.055 -0.043,0.1016 -0.10156,0.1016 m 0,0 h 6 c -0.0547,0 -0.10156,-0.043 -0.10156,-0.1016 m 0,0 v 3 c 0,0.055 0.043,0.1016 0.10156,0.1016 m 0,0 h 6 m 0,0 c 0.0547,0 0.10156,-0.043 0.10156,-0.1016 m 0,0 v -3 c 0,0.055 -0.043,0.1016 -0.10156,0.1016 m 0,0 h 6 c -0.0547,0 -0.10156,-0.043 -0.10156,-0.1016 m 0,0 v 3 c 0,0.055 0.043,0.1016 0.10156,0.1016 m 0,0 h 6 m 0,0 c 0.0547,0 0.10156,-0.043 0.10156,-0.1016 m 0,0 v -3 c 0,0.055 -0.043,0.1016 -0.10156,0.1016 m 0,0 h 6 c -0.0547,0 -0.10156,-0.043 -0.10156,-0.1016 m 0,0 v 3 c 0,0.055 0.043,0.1016 0.10156,0.1016 m 0,0 h 6 m 0,0 c 0.0547,0 0.10156,-0.043 0.10156,-0.1016 m 0,0 v -3 c 0,0.055 -0.043,0.1016 -0.10156,0.1016 m 0,0 h 6 c -0.0547,0 -0.10156,-0.043 -0.10156,-0.1016 m 0,0 v 3 c 0,0.055 0.043,0.1016 0.10156,0.1016 m 0,0 h 8 m 0,0 h 3 c 0.0547,0 0.10156,-0.043 0.10156,-0.1016 m 0,0 v -3 m 0,0 v -9 m 0,0 c 0,-0.055 -0.043,-0.1015 -0.10156,-0.1015 m 0,0 h -3 c 0.0547,0 0.10156,0.043 0.10156,0.1015 m 0,0 v -6 c 0,0.055 -0.043,0.1016 -0.10156,0.1016 m 0,0 h 3 c 0.0547,0 0.10156,-0.043 0.10156,-0.1016 m 0,0 v -6 m 0,0 c 0,-0.055 -0.043,-0.1015 -0.10156,-0.1015 m 0,0 h -3 c 0.0547,0 0.10156,0.043 0.10156,0.1015 m 0,0 v -6 c 0,0.055 -0.043,0.1016 -0.10156,0.1016 m 0,0 h 3 c 0.0547,0 0.10156,-0.043 0.10156,-0.1016 m 0,0 v -6 m 0,0 c 0,-0.055 -0.043,-0.1015 -0.10156,-0.1015 m 0,0 h -3 c 0.0547,0 0.10156,0.043 0.10156,0.1015 m 0,0 v -6 c 0,0.055 -0.043,0.1016 -0.10156,0.1016 m 0,0 h 3 c 0.0547,0 0.10156,-0.043 0.10156,-0.1016 m 0,0 v -6 m 0,0 c 0,-0.055 -0.043,-0.1015 -0.10156,-0.1015 m 0,0 h -3 c 0.0547,0 0.10156,0.043 0.10156,0.1015 m 0,0 v -6 c 0,0.055 -0.043,0.1016 -0.10156,0.1016 m 0,0 h 3 c 0.0547,0 0.10156,-0.043 0.10156,-0.1016 m 0,0 v -9 m 0,0 c 0,-0.055 -0.043,-0.1015 -0.10156,-0.1015 m 0,0 h -3 m 0,0 H 46.247374 m 0,0 h -3 c -0.05469,0 -0.101563,0.043 -0.101563,0.1015 m 0,0 v 0 m 0,0 v 9 m 0,0 c 0,0.055 0.04297,0.1016 0.101563,0.1016 m 0,0 h 3 c -0.05469,0 -0.101563,-0.043 -0.101563,-0.1016 m 0,0 v 6 c 0,-0.055 0.04297,-0.1015 0.101563,-0.1015 m 0,0 h -3 c -0.05469,0 -0.101563,0.043 -0.101563,0.1015 m 0,0 v 6 m 0,0 c 0,0.055 0.04297,0.1016 0.101563,0.1016 m 0,0 h 3 c -0.05469,0 -0.101563,-0.043 -0.101563,-0.1016 m 0,0 v 6 c 0,-0.055 0.04297,-0.1015 0.101563,-0.1015 m 0,0 h -3 c -0.05469,0 -0.101563,0.043 -0.101563,0.1015 m 0,0 v 6 m 0,0 c 0,0.055 0.04297,0.1016 0.101563,0.1016 m 0,0 h 3 c -0.05469,0 -0.101563,-0.043 -0.101563,-0.1016 m 0,0 10e-7,6 c 0,-0.055 0.04297,-0.1015 0.101562,-0.1015 m 0,0 h -3 c -0.05469,0 -0.101562,0.043 -0.101562,0.1015 m 0,0 v 6 m 0,0 c 0,0.055 0.04297,0.1016 0.101562,0.1016 m 0,0 h 3 c -0.05469,0 -0.101562,-0.043 -0.101562,-0.1016 m 0,0 v 6 c 0,-0.055 0.04297,-0.1015 0.101562,-0.1015 m 0,0 h -3 c -0.05469,0 -0.101562,0.043 -0.101562,0.1015 m 0,0 v 9 m 0,0 v 3 c 0,0.055 0.04297,0.1016 0.101562,0.1016 m 0,0 h 3"
     style="fill:none;stroke:#ff0000;stroke-width:0.1;stroke-linecap:butt;stroke-linejoin:miter;stroke-miterlimit:7.33333349;stroke-dasharray:none;stroke-opacity:1" />
  <path
     inkscape:connector-curvature="0"
     id="path8"
     d="m 6.5481556,9928.5845 h 6.9999994 m 0,0 c 0.05469,0 0.101562,-0.043 0.101562,-0.1016 m 0,0 v -3 c 0,0.055 -0.04297,0.1016 -0.101562,0.1016 m 0,0 h 6 c -0.05469,0 -0.101562,-0.043 -0.101562,-0.1016 m 0,0 v 3 c 0,0.055 0.04297,0.1016 0.101562,0.1016 m 0,0 h 6 m 0,0 c 0.05469,0 0.101562,-0.043 0.101562,-0.1016 m 0,0 v -3 c 0,0.055 -0.04297,0.1016 -0.101562,0.1016 m 0,0 h 6 c -0.05469,0 -0.101562,-0.043 -0.101562,-0.1016 m 0,0 v 3 c 0,0.055 0.04297,0.1016 0.101562,0.1016 m 0,0 h 7 m 0,0 c 0.05469,0 0.101562,-0.043 0.101562,-0.1016 m 0,0 v -3 m 0,0 v -9 m 0,0 c 0,0.055 -0.04297,0.1016 -0.101562,0.1016 m 0,0 h 3 c 0.05469,0 0.101562,-0.043 0.101562,-0.1016 m 0,0 v -6 c 0,-0.055 -0.04297,-0.1015 -0.101562,-0.1015 m 0,0 h -3 c 0.05469,0 0.101562,0.043 0.101562,0.1015 m 0,0 v -6 m 0,0 c 0,0.055 -0.04297,0.1016 -0.101562,0.1016 m 0,0 h 3 c 0.05469,0 0.101562,-0.043 0.101562,-0.1016 m 0,0 v -6 c 0,-0.055 -0.04297,-0.1015 -0.101562,-0.1015 m 0,0 h -3 c 0.05469,0 0.101562,0.043 0.101562,0.1015 m 0,0 v -6 m 0,0 c 0,0.055 -0.04297,0.1016 -0.101562,0.1016 m 0,0 h 3 c 0.05469,0 0.101562,-0.043 0.101562,-0.1016 m 0,0 v -6 c 0,-0.055 -0.04297,-0.1015 -0.101562,-0.1015 m 0,0 h -3 c 0.05469,0 0.101562,0.043 0.101562,0.1015 m 0,0 v -6 m 0,0 c 0,0.055 -0.04297,0.1016 -0.101562,0.1016 m 0,0 h 3 c 0.05469,0 0.101562,-0.043 0.101562,-0.1016 m 0,0 v -6 c 0,-0.055 -0.04297,-0.1015 -0.101562,-0.1015 m 0,0 h -3 c 0.05469,0 0.101562,0.043 0.101562,0.1015 m 0,0 v -9 m 0,0 c 0,-0.055 -0.04297,-0.1015 -0.101562,-0.1015 m 0,0 v 0 m 0,0 H 6.5481556 m 0,0 c -0.054687,0 -0.101563,0.043 -0.101563,0.1015 m 0,0 v 0 m 0,0 v 9 m 0,0 c 0,-0.055 0.042969,-0.1015 0.101563,-0.1015 m 0,0 h -3 c -0.054688,0 -0.101563,0.043 -0.101563,0.1015 m 0,0 v 6 c 0,0.055 0.042969,0.1016 0.101563,0.1016 m 0,0 h 3 c -0.054687,0 -0.101563,-0.043 -0.101563,-0.1016 m 0,0 v 6 m 0,0 c 0,-0.055 0.042969,-0.1015 0.101563,-0.1015 m 0,0 h -3 c -0.054688,0 -0.101563,0.043 -0.101563,0.1015 m 0,0 v 6 c 0,0.055 0.042969,0.1016 0.101563,0.1016 m 0,0 h 3 c -0.054687,0 -0.101563,-0.043 -0.101563,-0.1016 m 0,0 v 6 m 0,0 c 0,-0.055 0.042969,-0.1015 0.101563,-0.1015 m 0,0 h -3 c -0.054688,0 -0.101563,0.043 -0.101563,0.1015 m 0,0 v 6 c 0,0.055 0.042969,0.1016 0.101563,0.1016 m 0,0 h 3 c -0.054687,0 -0.101563,-0.043 -0.101563,-0.1016 m 0,0 v 6 m 0,0 c 0,-0.055 0.042969,-0.1015 0.101563,-0.1015 m 0,0 h -3 c -0.054688,0 -0.101563,0.043 -0.101563,0.1015 m 0,0 v 6 c 0,0.055 0.042969,0.1016 0.101563,0.1016 m 0,0 h 3 c -0.054687,0 -0.101563,-0.043 -0.101563,-0.1016 m 0,0 v 9 m 0,0 1e-6,3 c 0,0.055 0.042968,0.1016 0.101562,0.1016 m 0,0 v 0"
     style="fill:none;stroke:#ff0000;stroke-width:0.1;stroke-linecap:butt;stroke-linejoin:miter;stroke-miterlimit:7.33333349;stroke-dasharray:none;stroke-opacity:1" />
  <path
     inkscape:connector-curvature="0"
     id="path10"
     d="m 6.5481566,9860.8853 h 7.9999994 m 0,0 c -0.05469,0 -0.101563,-0.043 -0.101563,-0.1016 m 0,0 10e-7,3 c 0,0.055 0.04297,0.1016 0.101562,0.1016 m 0,0 h 6 c 0.05469,0 0.101562,-0.043 0.101562,-0.1016 m 0,0 v -3 c 0,0.055 -0.04297,0.1016 -0.101562,0.1016 m 0,0 h 6 m 0,0 c -0.05469,0 -0.101562,-0.043 -0.101562,-0.1016 m 0,0 v 3 c 0,0.055 0.04297,0.1016 0.101562,0.1016 m 0,0 h 6 c 0.05469,0 0.101562,-0.043 0.101562,-0.1016 m 0,0 v -3 c 0,0.055 -0.04297,0.1016 -0.101562,0.1016 m 0,0 h 6 m 0,0 c -0.05469,0 -0.101562,-0.043 -0.101562,-0.1016 m 0,0 v 3 c 0,0.055 0.04297,0.1016 0.101562,0.1016 m 0,0 h 6 c 0.05469,0 0.101562,-0.043 0.101562,-0.1016 m 0,0 v -3 c 0,0.055 -0.04297,0.1016 -0.101562,0.1016 m 0,0 h 6 m 0,0 c -0.05469,0 -0.101562,-0.043 -0.101562,-0.1016 m 0,0 v 3 c 0,0.055 0.04297,0.1016 0.101562,0.1016 m 0,0 h 6 c 0.05469,0 0.101562,-0.043 0.101562,-0.1016 m 0,0 v -3 c 0,0.055 -0.04297,0.1016 -0.101562,0.1016 m 0,0 h 6 m 0,0 c -0.05469,0 -0.101562,-0.043 -0.101562,-0.1016 m 0,0 v 3 c 0,0.055 0.04297,0.1016 0.101562,0.1016 m 0,0 h 6 c 0.05469,0 0.101562,-0.043 0.101562,-0.1016 m 0,0 v -3 c 0,0.055 -0.04297,0.1016 -0.101562,0.1016 m 0,0 h 6 m 0,0 c -0.05469,0 -0.101562,-0.043 -0.101562,-0.1016 m 0,0 v 3 c 0,0.055 0.04297,0.1016 0.101562,0.1016 m 0,0 h 6 c 0.05469,0 0.101562,-0.043 0.101562,-0.1016 m 0,0 v -3 c 0,0.055 -0.04297,0.1016 -0.101562,0.1016 m 0,0 h 6 m 0,0 c -0.05469,0 -0.101562,-0.043 -0.101562,-0.1016 m 0,0 v 3 c 0,0.055 0.04297,0.1016 0.101562,0.1016 m 0,0 h 6 c 0.05469,0 0.101562,-0.043 0.101562,-0.1016 m 0,0 v -3 c 0,0.055 -0.04297,0.1016 -0.101562,0.1016 m 0,0 h 6 m 0,0 c -0.05469,0 -0.101562,-0.043 -0.101562,-0.1016 m 0,0 v 3 c 0,0.055 0.04297,0.1016 0.101562,0.1016 m 0,0 h 5.999994 c 0.0547,0 0.10157,-0.043 0.10157,-0.1016 m 0,0 v -3 c 0,0.055 -0.043,0.1016 -0.10157,0.1016 m 0,0 h 6 m 0,0 c -0.0547,0 -0.10156,-0.043 -0.10156,-0.1016 m 0,0 v 3 c 0,0.055 0.043,0.1016 0.10156,0.1016 m 0,0 h 6 c 0.0547,0 0.10156,-0.043 0.10156,-0.1016 m 0,0 v -3 c 0,0.055 -0.043,0.1016 -0.10156,0.1016 m 0,0 h 6 m 0,0 c -0.0547,0 -0.10156,-0.043 -0.10156,-0.1016 m 0,0 v 3 c 0,0.055 0.043,0.1016 0.10156,0.1016 m 0,0 h 6 c 0.0547,0 0.10156,-0.043 0.10156,-0.1016 m 0,0 v -3 c 0,0.055 -0.043,0.1016 -0.10156,0.1016 m 0,0 h 8 m 0,0 c 0.0547,0 0.10156,-0.043 0.10156,-0.1016 m 0,0 v 0 m 0,0 v -7 m 0,0 c 0,0.055 -0.043,0.1016 -0.10156,0.1016 m 0,0 h 3 c 0.0547,0 0.10156,-0.043 0.10156,-0.1016 m 0,0 v -6 c 0,-0.055 -0.043,-0.1015 -0.10156,-0.1015 m 0,0 h -3 c 0.0547,0 0.10156,0.043 0.10156,0.1015 m 0,0 v -6 m 0,0 c 0,0.055 -0.043,0.1016 -0.10156,0.1016 m 0,0 h 3 c 0.0547,0 0.10156,-0.043 0.10156,-0.1016 m 0,0 v -6 c 0,-0.055 -0.043,-0.1015 -0.10156,-0.1015 m 0,0 h -3 c 0.0547,0 0.10156,0.043 0.10156,0.1015 m 0,0 v -7 m 0,0 c 0,-0.055 -0.043,-0.1015 -0.10156,-0.1015 m 0,0 v 0 m 0,0 h -8 m 0,0 c 0.0547,0 0.10156,0.043 0.10156,0.1015 m 0,0 v -3 c 0,-0.055 -0.043,-0.1015 -0.10156,-0.1015 m 0,0 h -6 c -0.0547,0 -0.10156,0.043 -0.10156,0.1015 m 0,0 v 3 c 0,-0.055 0.043,-0.1015 0.10156,-0.1015 m 0,0 h -6 m 0,0 c 0.0547,0 0.10156,0.043 0.10156,0.1015 m 0,0 v -3 c 0,-0.055 -0.043,-0.1015 -0.10156,-0.1015 m 0,0 h -6 c -0.0547,0 -0.10156,0.043 -0.10156,0.1015 m 0,0 v 3 c 0,-0.055 0.043,-0.1015 0.10156,-0.1015 m 0,0 h -6 m 0,0 c 0.0547,0 0.10157,0.043 0.10157,0.1015 m 0,0 v -3 c 0,-0.055 -0.043,-0.1015 -0.10157,-0.1015 m 0,0 h -5.999994 c -0.05469,0 -0.101563,0.043 -0.101563,0.1015 m 0,0 1e-6,3 c 0,-0.055 0.04297,-0.1015 0.101562,-0.1015 m 0,0 h -6 m 0,0 c 0.05469,0 0.101562,0.043 0.101562,0.1015 m 0,0 v -3 c 0,-0.055 -0.04297,-0.1015 -0.101562,-0.1015 m 0,0 h -6 c -0.05469,0 -0.101563,0.043 -0.101563,0.1015 m 0,0 1e-6,3 c 0,-0.055 0.04297,-0.1015 0.101562,-0.1015 m 0,0 h -6 m 0,0 c 0.05469,0 0.101562,0.043 0.101562,0.1015 m 0,0 v -3 c 0,-0.055 -0.04297,-0.1015 -0.101562,-0.1015 m 0,0 h -6 c -0.05469,0 -0.101563,0.043 -0.101563,0.1015 m 0,0 1e-6,3 c 0,-0.055 0.04297,-0.1015 0.101562,-0.1015 m 0,0 h -6 m 0,0 c 0.05469,0 0.101562,0.043 0.101562,0.1015 m 0,0 v -3 c 0,-0.055 -0.04297,-0.1015 -0.101562,-0.1015 m 0,0 h -6 c -0.05469,0 -0.101563,0.043 -0.101563,0.1015 m 0,0 v 3 c 0,-0.055 0.04297,-0.1015 0.101563,-0.1015 m 0,0 h -6 m 0,0 c 0.05469,0 0.101562,0.043 0.101562,0.1015 m 0,0 v -3 c 0,-0.055 -0.04297,-0.1015 -0.101562,-0.1015 m 0,0 h -6 c -0.05469,0 -0.101563,0.043 -0.101563,0.1015 m 0,0 v 3 c 0,-0.055 0.04297,-0.1015 0.101563,-0.1015 m 0,0 h -6 m 0,0 c 0.05469,0 0.101562,0.043 0.101562,0.1015 m 0,0 v -3 c 0,-0.055 -0.04297,-0.1015 -0.101562,-0.1015 m 0,0 h -6 c -0.05469,0 -0.101563,0.043 -0.101563,0.1015 m 0,0 v 3 c 0,-0.055 0.04297,-0.1015 0.101563,-0.1015 m 0,0 h -6 m 0,0 c 0.05469,0 0.101562,0.043 0.101562,0.1015 m 0,0 v -3 c 0,-0.055 -0.04297,-0.1015 -0.101562,-0.1015 m 0,0 h -6 c -0.05469,0 -0.101563,0.043 -0.101563,0.1015 m 0,0 v 3 c 0,-0.055 0.04297,-0.1015 0.101563,-0.1015 m 0,0 h -6 m 0,0 c 0.05469,0 0.101562,0.043 0.101562,0.1015 m 0,0 v -3 c 0,-0.055 -0.04297,-0.1015 -0.101562,-0.1015 m 0,0 h -6 c -0.05469,0 -0.101563,0.043 -0.101563,0.1015 m 0,0 v 3 c 0,-0.055 0.04297,-0.1015 0.101563,-0.1015 m 0,0 H 6.5481566 m 0,0 c -0.054687,0 -0.101563,0.043 -0.101563,0.1015 m 0,0 v 0 m 0,0 v 7 m 0,0 c 0,-0.055 0.042969,-0.1015 0.101563,-0.1015 m 0,0 h -3 c -0.054688,0 -0.101563,0.043 -0.101563,0.1015 m 0,0 v 6 c 0,0.055 0.042969,0.1016 0.101563,0.1016 m 0,0 h 3 c -0.054687,0 -0.101563,-0.043 -0.101563,-0.1016 m 0,0 v 6 m 0,0 c 0,-0.055 0.042969,-0.1015 0.101563,-0.1015 m 0,0 h -3 c -0.054688,0 -0.101563,0.043 -0.101563,0.1015 m 0,0 v 6 c 0,0.055 0.042969,0.1016 0.101563,0.1016 m 0,0 h 3 c -0.054687,0 -0.101563,-0.043 -0.101563,-0.1016 m 0,0 1e-6,7 m 0,0 c 0,0.055 0.042968,0.1016 0.101562,0.1016 m 0,0 v 0"
     style="fill:none;stroke:#ff0000;stroke-width:0.1;stroke-linecap:butt;stroke-linejoin:miter;stroke-miterlimit:7.33333349;stroke-dasharray:none;stroke-opacity:1" />
  <rect
     style="opacity:1;fill:none;fill-opacity:1;fill-rule:nonzero;stroke:#ff0000;stroke-width:0.1;stroke-linecap:square;stroke-linejoin:round;stroke-miterlimit:7.33333349;stroke-dasharray:none;stroke-dashoffset:0;stroke-opacity:1"
     id="rect4763"
     width="15.424066"
     height="6.3080878"
     x="23.360519"
     y="9910.3105" />
  <rect
     y="9910.4834"
     x="46.145813"
     height="5.9373064"
     width="15.424066"
     id="rect4765"
     style="opacity:1;fill:none;fill-opacity:1;fill-rule:nonzero;stroke:#ff0000;stroke-width:0.1;stroke-linecap:square;stroke-linejoin:round;stroke-miterlimit:7.33333349;stroke-dasharray:none;stroke-dashoffset:0;stroke-opacity:1" />
  <rect
     style="opacity:1;fill:none;fill-opacity:1;fill-rule:nonzero;stroke:#ff0000;stroke-width:0.10000001;stroke-linecap:square;stroke-linejoin:round;stroke-miterlimit:7.33333349;stroke-dasharray:none;stroke-dashoffset:0;stroke-opacity:1"
     id="rect4767"
     width="15.424066"
     height="5.8313928"
     x="160.95857"
     y="9910.5293" />
  <rect
     y="9974.9766"
     x="6.1639843"
     height="6.1174097"
     width="15.424066"
     id="rect4769"
     style="opacity:1;fill:none;fill-opacity:1;fill-rule:nonzero;stroke:#ff0000;stroke-width:0.10000001;stroke-linecap:square;stroke-linejoin:round;stroke-miterlimit:7.33333349;stroke-dasharray:none;stroke-dashoffset:0;stroke-opacity:1" />
</svg>
